<?xml version="1.0" encoding="UTF-8"?>
<svg width="300px" height="300px" viewBox="0 0 300 300" version="1.1" xmlns="http://www.w3.org/2000/svg">
    <path d="M300,255 C300,280.5 279.5,300 255,300 L45,300 C19.5,300 0,279.5 0,255 L0,45 C0,19.5 19.5,0 45,0 L255,0 C279.5,0 300,19.5 300,45 L300,255 Z" fill="#09B3BF"/>
    <path d="M200.8,115.3 C207.1,115.3 213.1,116.3 218.9,118.1 C201.4,77.5 152.5,53.7 107.9,69.2 C73.9,81.1 51.1,111.2 51.1,144.8 C51.1,166.5 60.9,186.9 77.9,201.3 L71.1,226.6 L98.1,213.9 C107.9,217.5 118.4,219.3 129.2,219.3 C127.7,214.5 127,209.4 127,204.1 C127,155.8 160.2,115.3 200.8,115.3 Z M158.8,95.7 C167.4,95.7 174.4,102.7 174.4,111.3 C174.4,119.9 167.4,126.9 158.8,126.9 C150.2,126.9 143.2,119.9 143.2,111.3 C143.2,102.7 150.2,95.7 158.8,95.7 Z M108.8,126.9 C100.2,126.9 93.2,119.9 93.2,111.3 C93.2,102.7 100.2,95.7 108.8,95.7 C117.4,95.7 124.4,102.7 124.4,111.3 C124.4,119.9 117.4,126.9 108.8,126.9 Z M248.9,204.1 C248.9,226.6 229.7,245.8 207.2,245.8 C201.4,245.8 195.9,244.6 190.7,242.4 L169.2,252.3 L174.4,232.8 C161.7,221.7 153.6,205.3 153.6,187.3 C153.6,153.7 176.4,123.6 210.4,111.7 C235.7,103.2 261.7,110.2 278.7,127.2 C268.9,171.3 248.9,204.1 248.9,204.1 Z M207.2,154.1 C198.6,154.1 191.6,147.1 191.6,138.5 C191.6,129.9 198.6,122.9 207.2,122.9 C215.8,122.9 222.8,129.9 222.8,138.5 C222.8,147.1 215.8,154.1 207.2,154.1 Z M257.2,154.1 C248.6,154.1 241.6,147.1 241.6,138.5 C241.6,129.9 248.6,122.9 257.2,122.9 C265.8,122.9 272.8,129.9 272.8,138.5 C272.8,147.1 265.8,154.1 257.2,154.1 Z" fill="#FFFFFF"/>
</svg> 